<svg fill="#A8B1F5" xmlns="http://www.w3.org/2000/svg" data-name="Layer 1" viewBox="0 0 100 100" x="0px" y="0px"><title>A</title><path d="M91.54974,59.6358l-5.58563-3.33331a7.33334,7.33334,0,0,1-.00934-12.59442l5.59241-3.33728a7.07184,7.07184,0,0,0-5.35559-12.93067l-6.31445,1.59467a7.33343,7.33343,0,0,1-8.89923-8.91223l1.59259-6.3067A7.07475,7.07475,0,0,0,59.63586,8.45825L56.3114,14.02911a7.37325,7.37325,0,0,1-6.33307,3.59479A7.2936,7.2936,0,0,1,43.717,14.06805L40.35449,8.43359A7.07182,7.07182,0,0,0,27.44562,13.838l1.58673,6.2832a7.33317,7.33317,0,0,1-8.8996,8.91138L13.8161,27.43738A7.07484,7.07484,0,0,0,8.45831,40.37213L14.044,43.70544a7.3333,7.3333,0,0,1,.00927,12.59449L8.4339,59.65326A7.07188,7.07188,0,0,0,13.838,72.56244l6.29315-1.5893a7.33335,7.33335,0,0,1,8.89911,8.91224L27.43756,86.192a7.07476,7.07476,0,0,0,12.93463,5.35772l3.33869-5.5946a7.33325,7.33325,0,0,1,12.59436.00842l3.32061,5.56452a7.07187,7.07187,0,0,0,12.94971-5.306l-1.61218-6.38428a7.25284,7.25284,0,0,1,1.90234-6.90308l.05689-.05694a7.27182,7.27182,0,0,1,6.9237-1.90973l6.34577,1.60248a7.07479,7.07479,0,0,0,5.35766-12.9347ZM56.60535,65.94122a17.25038,17.25038,0,1,1,9.336-22.53875A17.25038,17.25038,0,0,1,56.60535,65.94122Z"></path></svg>