<svg fill="#B5152B" xmlns:dc="http://purl.org/dc/elements/1.1/" xmlns:cc="http://creativecommons.org/ns#" xmlns:rdf="http://www.w3.org/1999/02/22-rdf-syntax-ns#" xmlns:svg="http://www.w3.org/2000/svg" xmlns="http://www.w3.org/2000/svg" xmlns:sodipodi="http://sodipodi.sourceforge.net/DTD/sodipodi-0.dtd" xmlns:inkscape="http://www.inkscape.org/namespaces/inkscape" version="1.1" x="0px" y="0px" viewBox="0 0 16 16" style="enable-background:new 0 0 16 16;" xml:space="preserve"><style type="text/css">
	.st0{fill:none;stroke:#B5152B;stroke-miterlimit:10;}
	.st1{fill:none;stroke:#B5152B;stroke-linecap:round;stroke-linejoin:round;stroke-miterlimit:10;}
	.st2{fill:#B5152B;}
</style><path style="" d="M 8 1 C 4.14 1 1 4.141 1 8 C 1 11.859 4.14 15 8 15 C 11.86 15 15 11.859 15 8 C 15 4.141 11.86 1 8 1 z M 8 2 C 11.309 2 14 4.691 14 8 C 14 11.309 11.309 14 8 14 C 4.691 14 2 11.309 2 8 C 2 4.691 4.691 2 8 2 z M 8 3 C 5.243 3 3 5.243 3 8 C 3 10.757 5.243 13 8 13 C 10.757 13 13 10.757 13 8 C 13 5.243 10.757 3 8 3 z M 8 4 C 10.206 4 12 5.794 12 8 C 12 10.206 10.206 12 8 12 C 5.794 12 4 10.206 4 8 C 4 5.794 5.794 4 8 4 z M 8 5 C 6.346 5 5 6.346 5 8 C 5 9.654 6.346 11 8 11 C 9.654 11 11 9.654 11 8 C 11 6.346 9.654 5 8 5 z M 8 6 C 9.103 6 10 6.897 10 8 C 10 9.103 9.103 10 8 10 C 6.897 10 6 9.103 6 8 C 6 6.897 6.897 6 8 6 z M 8 7 C 7.449 7 7 7.448 7 8 C 7 8.552 7.449 9 8 9 C 8.551 9 9 8.552 9 8 C 9 7.448 8.551 7 8 7 z M 8 7.9980469 L 8.5 8 L 8 8 L 8 7.9980469 z " fill="#B5152B" stroke="none"></path></svg>